<svg xmlns="http://www.w3.org/2000/svg" xmlns:xlink="http://www.w3.org/1999/xlink" version="1.1" id="Layer_1" x="0px" y="0px" style="enable-background:new 0 0 1920 1080;" xml:space="preserve" viewBox="52.4 339.91 1815.2 400.18">
<style type="text/css">
	.st0{fill:#EE5B35;}
</style>
<g>
	<g>
		<path class="st0" d="M256.83,542.17c-14.99-8.12-31.23-15.07-48.74-20.85c-17.51-5.77-33.67-12.18-48.47-19.22    c-14.81-7.04-27.17-15.98-37.1-26.81c-9.93-10.83-14.71-25.45-14.35-43.86c0-14.08,1.8-26.54,5.42-37.37    c3.6-10.83,8.3-19.85,14.08-27.08c5.77-7.22,12.36-12.63,19.77-16.25c7.4-3.61,14.89-5.42,22.47-5.42    c7.58,0,15.07,1.81,22.47,5.42c7.4,3.61,13.99,9.12,19.77,16.52c5.77,7.4,10.47,16.7,14.08,27.89c3.6,11.19,5.41,24.37,5.41,39.53    h47.65c0-15.52-3.16-29.15-9.48-40.89c-6.32-11.73-14.62-21.57-24.91-29.51c-10.29-7.94-21.93-13.89-34.93-17.87    c-13-3.97-26.36-5.96-40.07-5.96c-13.72,0-27.08,2.08-40.07,6.23c-13,4.15-24.64,10.29-34.93,18.41    c-10.29,8.12-18.6,18.41-24.91,30.87c-6.32,12.45-9.48,26.99-9.48,43.59c0,22.02,4.96,39.8,14.89,53.34    c9.93,13.54,22.38,24.73,37.37,33.58c14.98,8.85,31.22,16.34,48.74,22.47c17.51,6.14,33.75,12.91,48.74,20.31    c14.98,7.4,27.43,16.25,37.37,26.54c9.93,10.29,14.89,24.28,14.89,41.97c0,12.28-2.26,23.11-6.77,32.49    c-4.52,9.39-10.48,17.33-17.87,23.83c-7.4,6.5-15.8,11.47-25.18,14.89c-9.39,3.44-19.14,5.14-29.24,5.14    c-10.11,0-20.22-1.9-30.33-5.69c-10.11-3.79-19.05-9.65-26.81-17.6c-7.77-7.94-14.08-17.96-18.95-30.05    c-4.87-12.09-7.31-26.44-7.31-43.05H52.4c0,16.61,3.79,31.32,11.37,44.13c7.58,12.82,17.6,23.38,30.06,31.68    c12.45,8.31,26.62,14.62,42.51,18.95c15.88,4.33,31.95,6.5,48.2,6.5c15.88,0,31.22-1.98,46.03-5.96    c14.8-3.97,28.07-9.83,39.8-17.6c11.73-7.76,21.12-17.6,28.16-29.51c7.04-11.91,10.56-25.81,10.56-41.7    c0-21.3-4.97-38.26-14.89-50.9C284.26,560.67,271.81,550.29,256.83,542.17z"/>
		<path class="st0" d="M604.75,341.73h-27.14v245.66c0,18.78-2.78,35.2-8.38,49.29c-5.6,14.08-13,25.71-22.21,34.93    c-9.2,9.2-19.76,16.16-31.68,20.85c-7.94,3.12-15.96,5.18-24.06,6.23c-8.1-1.04-16.12-3.1-24.06-6.23    c-11.92-4.69-22.48-11.65-31.68-20.85c-9.21-9.21-16.61-20.85-22.21-34.93c-5.6-14.09-8.38-30.51-8.38-49.29V341.73H377.8h-4.88    h-15.65v245.66c0,22.04,3.71,41.34,11.11,57.94c7.4,16.61,17.14,30.52,29.24,41.7c12.09,11.2,25.91,19.69,41.43,25.46    c14.43,5.37,29.03,8.24,43.78,8.63c1.1,0.03,2.21,0.04,3.32,0.04c1.71,0,3.42-0.05,5.12-0.11c1.7,0.07,3.41,0.11,5.12,0.11    c1.12,0,2.22-0.01,3.32-0.04c14.76-0.38,29.35-3.26,43.78-8.63c15.52-5.76,29.34-14.25,41.43-25.46    c12.1-11.17,21.84-25.09,29.24-41.7c7.4-16.6,11.11-35.91,11.11-57.94V341.73h-15.65H604.75z"/>
		<path class="st0" d="M1257.31,355.31c0.08,0.98,0.08,1.98,0,3.01v342.26c0.08,1.02,0.08,2.03,0,3.01v15.4h46.82V339.91h-46.82    V355.31z"/>
		<path class="st0" d="M1799.91,705.44c-18.06,3.98-37.01,5.95-56.85,5.95c-23.48,0-47.65-2.62-72.56-7.85    c-24.91-5.23-49.11-12.81-72.58-22.74c-23.47-9.92-45.66-21.84-66.6-35.74c-20.94-13.89-39.18-29.6-54.7-47.11    c-15.53-17.51-27.89-36.47-37.09-56.87c-9.21-20.39-13.82-41.97-13.82-64.71V344.79h57.94c17.33,0,32.04,5.14,44.14,15.43    c12.1,10.29,21.39,23.11,27.89,38.46c6.5,15.34,10.02,31.94,10.56,49.82c0.53,17.87-2.17,34.48-8.12,49.82    c-5.95,15.34-15.09,28.15-27.35,38.44c-12.28,10.29-27.99,15.44-47.12,15.44h-15.15v4.78l4.86,0.1h10.29    c29.6,0,54.25-5.33,73.93-15.98c19.68-10.64,34.38-24.09,44.14-40.34c9.74-16.26,14.53-33.66,14.35-52.26    c-0.19-18.59-5.25-36.02-15.17-52.26c-9.93-16.24-24.64-29.69-44.14-40.35c-19.49-10.64-43.87-15.97-73.11-15.97h-105.91v13.4    c0.35,1.59,0.45,3.27,0.31,5.01v342.26c0.14,1.74,0.04,3.41-0.31,5.01v13.4h47.97V522.4c5.42,27.08,15.44,53.61,30.06,79.61    c14.62,25.99,33.03,49.19,55.23,69.58c22.21,20.41,47.93,36.93,77.17,49.56c29.24,12.63,61.2,18.94,95.85,18.94    c25.63,0,52.34-3.88,80.15-11.64c27.79-7.77,57.03-20.48,87.72-38.18l-2.17-3.79C1834.58,695.15,1817.97,701.47,1799.91,705.44z"/>
		<path class="st0" d="M889.9,681.85L727.15,339.91h-32.83h-20.13v350.3v8.15v12.78h20.13v-13v-1.02V378.16l161.71,340.83    l44.25-0.42h12.66V339.91l-23.18,0C890.99,347.84,890.24,588.31,889.9,681.85z"/>
		<polygon class="st0" points="984.37,339.91 984.37,355.31 984.37,358.32 984.37,362.3 984.37,670.7 984.45,670.7 984.45,718.99     1032.01,718.99 1032.01,673.77 1032.03,673.77 1032.03,538.77 1101.21,538.77 1124.09,538.77 1124.09,521.72 1099.19,521.72     1032.03,521.72 1032.03,362.3 1180.74,362.3 1208.18,362.3 1208.18,346.84 1208.18,339.91 1208.02,339.91   "/>
		<polygon class="st0" points="1834.02,358.33 1867.07,358.33 1867.6,358.33 1867.6,339.91 1865.99,339.91 1662.91,339.91     1662.91,355.24 1662.91,358.32 1662.91,358.33 1662.91,519.39 1662.91,537.81 1662.91,640.45 1662.91,643.53 1662.91,658.88     1865.99,658.88 1867.6,658.88 1867.6,640.45 1867.07,640.45 1834.25,640.45 1711.1,640.45 1711.1,537.81 1778.75,537.81     1802.62,537.81 1802.62,519.39 1780.73,519.39 1711.1,519.39 1711.1,358.33   "/>
	</g>
</g>
</svg>