<?xml version="1.0" encoding="utf-8"?>
<!-- Generator: Adobe Illustrator 26.3.1, SVG Export Plug-In . SVG Version: 6.00 Build 0)  -->
<svg version="1.1" id="Layer_1" xmlns="http://www.w3.org/2000/svg" xmlns:xlink="http://www.w3.org/1999/xlink" x="0px" y="0px"
	 viewBox="0 0 1920 1080" style="enable-background:new 0 0 1920 1080;" xml:space="preserve">
<g>
	<g>
		<path d="M384.29,782.73c0.14,8.97-2.59,15.51-3.28,17.06c-3.4,7.81-8.42,12.42-10.35,14.08c-1.88,1.6-8.2,6.68-17.78,8.53
			c-2.9,0.55-5.11,0.69-6.74,0.69c-1.46,0-29.75-0.08-29.75-0.08v-78.91h29.75c3.59,0.08,14.68,0.8,24.51,9.14
			c6.9,5.85,9.94,12.67,11.04,15.51C382.16,769.95,384.15,775.33,384.29,782.73z M377.64,779.69c-0.88-7.78-4.14-13.08-4.91-14.3
			c-4.75-7.51-11.21-10.82-13.11-11.76c-5.52-2.62-10.54-3.06-13.39-3.09l-23.35-0.08l0.08,65.99c0,0,20.87,0.33,23.63,0.17
			c3.62-0.22,6.73-0.5,10.43-1.9c5.71-2.15,9.3-5.6,10.88-7.15c5.05-5,7.23-10.27,7.92-12.17
			C376.42,793.77,378.55,787.69,377.64,779.69z"/>
		<path d="M434.67,744.08v78.95l-6.5-0.06l0.06-78.89H434.67z"/>
		<path d="M544.68,810.45c-0.47,0.53-1.17,1.29-2.07,2.16c-6.07,5.84-12.54,8.12-14.32,8.71c-2.36,0.78-7.18,2.1-13.37,1.81
			c-9.45-0.45-16.17-4.38-18.72-6.04c-1.54-1.01-6.94-4.69-11.39-11.64c-1.23-1.93-4.22-6.97-5.61-14.23
			c-1.85-9.68,0.3-17.27,0.86-19.15c0.43-1.43,2.36-7.5,7.5-13.8c1.89-2.32,5.51-6.67,11.82-10c1.69-0.89,9.53-4.87,20.19-4.05
			c2.33,0.18,8.26,0.85,14.49,4.14c1.66,0.87,5.25,2.8,8.8,6.56c0.75,0.79,1.33,1.49,1.73,1.98l-4.49,4.49l-1.21-1.29
			c-1.18-1.25-2.95-2.91-5.35-4.48c-1.38-0.91-6.01-3.77-12.77-4.66c-2.94-0.39-8.77-0.73-15.36,1.81
			c-8.75,3.37-13.51,9.78-15.44,12.85c-0.79,1.25-4.23,6.92-4.92,15.18c-0.75,9.06,2.27,15.77,3.1,17.51
			c3.02,6.33,7.28,10.04,9.06,11.47c6.4,5.13,12.89,6.35,14.67,6.64c7.27,1.19,12.9-0.56,14.32-1.04c4.86-1.62,8.4-4.31,9.75-5.35
			c0.88-0.68,1.58-1.29,2.07-1.72l0.09-21.57l-19.06-0.09v-6.3l25.53-0.09L544.68,810.45z"/>
		<path d="M596.75,744.08v78.95l-6.5-0.06l0.06-78.89H596.75z"/>
		<path d="M700.42,750.58l-28.98-0.06v72.4l-6.5,0.05v-72.4l-28.69-0.06l0.06-6.44h64.06L700.42,750.58z"/>
		<path d="M796.09,777.42v45.49h-6.43v-19.85l-50.95,0.05v19.85h-6.43V778.8c-0.08-1.49-0.11-3.42,0.17-5.69
			c0.25-2.21,0.86-5.33,2.29-8.8c0.66-1.57,2.29-5.16,5.52-8.92c1.55-1.79,5.22-5.96,11.57-8.75c1.68-0.72,9.96-4.17,20.01-1.66
			c4.55,1.13,7.84,3.09,9.44,4.14c4.2,2.79,6.62,5.91,7.87,7.54c3.2,4.19,4.64,8.03,5.11,9.41
			C795.84,770.66,796.12,774.69,796.09,777.42z M789.71,796.63l-0.06-20.7c-0.11-2.01-0.47-5.05-1.79-8.47
			c-2.37-6.18-6.32-9.77-7.54-10.79c-4.42-3.81-8.91-5.08-9.94-5.35c-7.73-2.04-14.1,0.36-15.71,1.02
			c-7.56,3.15-11.12,9.08-12.37,11.23c-2.24,3.86-2.98,7.51-3.15,8.45c-0.41,2.13-0.5,3.98-0.47,5.36v19.21L789.71,796.63z"/>
		<path d="M894.8,816.42v6.5l-52.5,0.05l-0.06-78.89h6.61l-0.17,72.34H894.8z"/>
		<path d="M1055.58,777.42v45.49h-6.43v-19.85l-50.95,0.05v19.85h-6.43V778.8c-0.08-1.49-0.11-3.42,0.17-5.69
			c0.25-2.21,0.85-5.33,2.29-8.8c0.66-1.57,2.29-5.16,5.52-8.92c1.55-1.79,5.22-5.96,11.57-8.75c1.68-0.72,9.96-4.17,20.01-1.66
			c4.55,1.13,7.84,3.09,9.44,4.14c4.2,2.79,6.62,5.91,7.87,7.54c3.2,4.19,4.64,8.03,5.11,9.41
			C1055.33,770.66,1055.61,774.69,1055.58,777.42z M1049.21,796.63l-0.06-20.7c-0.11-2.01-0.47-5.05-1.79-8.47
			c-2.37-6.18-6.32-9.77-7.54-10.79c-4.42-3.81-8.91-5.08-9.94-5.35c-7.73-2.04-14.1,0.36-15.71,1.02
			c-7.56,3.15-11.12,9.08-12.37,11.23c-2.24,3.86-2.98,7.51-3.15,8.45c-0.41,2.13-0.5,3.98-0.47,5.36v19.21L1049.21,796.63z"/>
		<path d="M1163.95,810.45c-0.47,0.53-1.17,1.29-2.07,2.16c-6.07,5.84-12.54,8.12-14.32,8.71c-2.36,0.78-7.18,2.1-13.37,1.81
			c-9.45-0.45-16.17-4.38-18.72-6.04c-1.54-1.01-6.94-4.69-11.39-11.64c-1.23-1.93-4.22-6.97-5.61-14.23
			c-1.85-9.68,0.3-17.27,0.86-19.15c0.43-1.43,2.36-7.5,7.5-13.8c1.89-2.32,5.51-6.67,11.82-10c1.69-0.89,9.53-4.87,20.19-4.05
			c2.33,0.18,8.26,0.85,14.49,4.14c1.66,0.87,5.25,2.8,8.8,6.56c0.75,0.79,1.33,1.49,1.73,1.98l-4.49,4.49l-1.21-1.29
			c-1.18-1.25-2.94-2.91-5.35-4.48c-1.38-0.91-6.01-3.77-12.77-4.66c-2.94-0.39-8.77-0.73-15.36,1.81
			c-8.75,3.37-13.51,9.78-15.44,12.85c-0.79,1.25-4.23,6.92-4.92,15.18c-0.75,9.06,2.27,15.77,3.1,17.51
			c3.02,6.33,7.28,10.04,9.06,11.47c6.4,5.13,12.89,6.35,14.67,6.64c7.27,1.19,12.9-0.56,14.32-1.04c4.86-1.62,8.4-4.31,9.75-5.35
			c0.88-0.68,1.58-1.29,2.07-1.72l0.09-21.57l-19.06-0.09v-6.3l25.53-0.09L1163.95,810.45z"/>
		<path d="M1215.92,816.48h55.09v6.44h-61.64v-78.84h61.6l0.04,6.42l-55.11,0.09l0.09,29.31l46.84,0.12l0.06,6.5l-46.83-0.06
			L1215.92,816.48z"/>
		<path d="M1390,822.92l-6.47,0.17l-63.83-69.52v69.35l-6.38,0.09v-78.92l6.38,0.09l63.74,69l-0.09-69.09h6.47L1390,822.92z"/>
		<path d="M1500.01,797.8l4.95,4.37c-0.32,0.63-0.78,1.49-1.38,2.47c-0.46,0.75-1.8,2.9-4.08,5.46c-1.4,1.58-3.9,4.36-7.94,7.02
			c-3.38,2.23-6.35,3.39-7.65,3.85c-1.95,0.71-6.49,2.15-12.48,2.13c-6.83-0.03-12.01-1.94-14.43-2.99
			c-1.29-0.56-5.18-2.32-9.37-5.87c-6.22-5.25-9.17-11.07-10.18-13.23c-2.6-5.59-3.16-10.37-3.45-12.99
			c-0.6-5.53-0.02-9.74,0.12-10.7c1.28-8.77,5.26-14.88,6.67-16.9c1.75-2.51,7.48-10.48,18.46-14.32c2.24-0.78,8.43-2.7,16.44-1.78
			c3.45,0.4,10.55,1.7,17.65,6.84c6.05,4.38,9.37,9.56,10.98,12.54l0.63,1.11l-4.92,4.67c-0.3-0.64-0.73-1.51-1.29-2.5
			c-2.74-4.81-5.95-7.76-6.78-8.51c-5.29-4.74-10.88-6.41-12.42-6.84c-6.89-1.91-12.53-0.87-14.2-0.52c-5.66,1.2-9.44,3.77-11.21,5
			c-4.87,3.39-7.6,7.24-8.63,8.8c-4.61,7.01-5.12,13.86-5.29,16.68c-0.43,6.97,1.29,12.12,1.67,13.23c0.48,1.37,2.17,5.96,6.21,10.7
			c1.26,1.47,3.76,4.36,7.94,6.84c6.79,4.04,13.38,4.28,15.87,4.26c2.26-0.03,7.6-0.33,13.46-3.28
			C1494.64,808.66,1498.74,800.6,1500.01,797.8z"/>
		<path d="M1575.83,789.8l0.06,33.12h-6.61l0.12-33.24l-32.66-45.6h7.88l28,39.04l27.95-39.04h7.94L1575.83,789.8z"/>
	</g>
	<g>
		<path d="M256.83,459.1c-14.99-8.12-31.23-15.07-48.74-20.85c-17.51-5.77-33.67-12.18-48.47-19.22
			c-14.81-7.04-27.17-15.98-37.1-26.81c-9.93-10.83-14.71-25.45-14.35-43.86c0-14.08,1.8-26.54,5.42-37.37
			c3.6-10.83,8.3-19.85,14.08-27.08c5.77-7.22,12.36-12.63,19.77-16.25c7.4-3.61,14.89-5.42,22.47-5.42
			c7.58,0,15.07,1.81,22.47,5.42c7.4,3.61,13.99,9.12,19.77,16.52c5.77,7.4,10.47,16.7,14.08,27.89c3.6,11.19,5.41,24.37,5.41,39.53
			h47.65c0-15.52-3.16-29.15-9.48-40.89c-6.32-11.73-14.62-21.57-24.91-29.51c-10.29-7.94-21.93-13.89-34.93-17.87
			c-13-3.97-26.36-5.96-40.07-5.96c-13.72,0-27.08,2.08-40.07,6.23c-13,4.15-24.64,10.29-34.93,18.41
			c-10.29,8.12-18.6,18.41-24.91,30.87c-6.32,12.45-9.48,26.99-9.48,43.59c0,22.02,4.96,39.8,14.89,53.34
			c9.93,13.54,22.38,24.73,37.37,33.58c14.98,8.85,31.22,16.34,48.74,22.47c17.51,6.14,33.75,12.91,48.74,20.31
			c14.98,7.4,27.43,16.25,37.37,26.54c9.93,10.29,14.89,24.28,14.89,41.97c0,12.28-2.26,23.11-6.77,32.49
			c-4.52,9.39-10.48,17.33-17.87,23.83c-7.4,6.5-15.8,11.47-25.18,14.89c-9.39,3.44-19.14,5.14-29.24,5.14
			c-10.11,0-20.22-1.9-30.33-5.69c-10.11-3.79-19.05-9.65-26.81-17.6c-7.77-7.94-14.08-17.96-18.95-30.05
			c-4.87-12.09-7.31-26.44-7.31-43.05H52.4c0,16.61,3.79,31.32,11.37,44.13c7.58,12.82,17.6,23.38,30.06,31.68
			c12.45,8.31,26.62,14.62,42.51,18.95c15.88,4.33,31.95,6.5,48.2,6.5c15.88,0,31.22-1.98,46.03-5.96
			c14.8-3.97,28.07-9.83,39.8-17.6c11.73-7.76,21.12-17.6,28.16-29.51c7.04-11.91,10.56-25.81,10.56-41.7
			c0-21.3-4.97-38.26-14.89-50.9C284.26,477.6,271.81,467.22,256.83,459.1z"/>
		<path d="M604.75,258.66h-27.14v245.65c0,18.78-2.78,35.2-8.38,49.29c-5.6,14.08-13,25.71-22.21,34.93
			c-9.2,9.2-19.76,16.16-31.68,20.85c-7.94,3.12-15.96,5.18-24.06,6.23c-8.1-1.04-16.12-3.1-24.06-6.23
			c-11.92-4.69-22.48-11.65-31.68-20.85c-9.21-9.21-16.61-20.85-22.21-34.93c-5.6-14.09-8.38-30.51-8.38-49.29V258.66H377.8h-4.88
			h-15.65v245.65c0,22.04,3.71,41.34,11.11,57.94c7.4,16.61,17.14,30.52,29.24,41.7c12.09,11.2,25.91,19.69,41.43,25.46
			c14.43,5.37,29.03,8.24,43.78,8.63c1.1,0.03,2.21,0.04,3.32,0.04c1.71,0,3.42-0.05,5.12-0.11c1.7,0.07,3.41,0.11,5.12,0.11
			c1.12,0,2.22-0.01,3.32-0.04c14.76-0.38,29.35-3.26,43.78-8.63c15.52-5.76,29.34-14.25,41.43-25.46
			c12.1-11.17,21.84-25.09,29.24-41.7c7.4-16.6,11.11-35.91,11.11-57.94V258.66h-15.65H604.75z"/>
		<path d="M1257.31,272.23c0.08,0.98,0.08,1.98,0,3.01V617.5c0.08,1.02,0.08,2.03,0,3.01v15.4h46.82V256.84h-46.82V272.23z"/>
		<path d="M1799.91,622.37c-18.06,3.98-37.01,5.95-56.85,5.95c-23.48,0-47.65-2.62-72.56-7.85c-24.91-5.23-49.11-12.81-72.58-22.74
			c-23.47-9.92-45.66-21.84-66.6-35.74c-20.94-13.89-39.18-29.6-54.7-47.11c-15.53-17.51-27.89-36.47-37.09-56.87
			c-9.21-20.39-13.82-41.97-13.82-64.71V261.71h57.94c17.33,0,32.04,5.14,44.14,15.43c12.1,10.29,21.39,23.11,27.89,38.46
			c6.5,15.34,10.02,31.94,10.56,49.82c0.53,17.87-2.17,34.48-8.12,49.82c-5.95,15.34-15.09,28.15-27.35,38.44
			c-12.28,10.29-27.99,15.44-47.12,15.44h-15.15v4.78l4.86,0.1h10.29c29.6,0,54.25-5.33,73.93-15.98
			c19.68-10.64,34.38-24.09,44.14-40.34c9.74-16.26,14.53-33.66,14.35-52.26c-0.19-18.59-5.25-36.02-15.17-52.26
			c-9.93-16.24-24.64-29.69-44.14-40.35c-19.49-10.64-43.87-15.97-73.11-15.97h-105.91v13.4c0.35,1.59,0.45,3.27,0.31,5.01V617.5
			c0.14,1.74,0.04,3.41-0.31,5.02v13.4h47.97V439.33c5.42,27.08,15.44,53.61,30.06,79.61c14.62,25.99,33.03,49.19,55.23,69.58
			c22.21,20.41,47.93,36.93,77.17,49.56s61.2,18.94,95.85,18.94c25.63,0,52.34-3.88,80.15-11.64c27.79-7.77,57.03-20.48,87.72-38.18
			l-2.17-3.79C1834.58,612.08,1817.97,618.4,1799.91,622.37z"/>
		<path d="M889.9,598.78L727.15,256.84h-32.83h-20.13v350.3v8.15v12.78h20.13v-13v-1.02V295.09l161.71,340.83l44.25-0.42h12.66
			V256.84l-23.18,0C890.99,264.76,890.24,505.24,889.9,598.78z"/>
		<polygon points="984.37,256.84 984.37,272.23 984.37,275.25 984.37,279.23 984.37,587.63 984.45,587.63 984.45,635.91 
			1032.01,635.91 1032.01,590.7 1032.03,590.7 1032.03,455.7 1101.21,455.7 1124.09,455.7 1124.09,438.65 1099.19,438.65 
			1032.03,438.65 1032.03,279.23 1180.74,279.23 1208.18,279.23 1208.18,263.77 1208.18,256.84 1208.02,256.84 		"/>
		<polygon points="1834.02,275.26 1867.07,275.26 1867.6,275.26 1867.6,256.84 1865.99,256.84 1662.91,256.84 1662.91,272.17 
			1662.91,275.25 1662.91,275.26 1662.91,436.32 1662.91,454.74 1662.91,557.38 1662.91,560.46 1662.91,575.8 1865.99,575.8 
			1867.6,575.8 1867.6,557.38 1867.07,557.38 1834.25,557.38 1711.1,557.38 1711.1,454.74 1778.75,454.74 1802.62,454.74 
			1802.62,436.32 1780.73,436.32 1711.1,436.32 1711.1,275.26 		"/>
	</g>
</g>
</svg>
